<svg xmlns="http://www.w3.org/2000/svg" viewBox="0 0 420 420" role="img" aria-labelledby="title desc">
  <title id="title">Payment QR Placeholder</title>
  <desc id="desc">Placeholder graphic for the payment scanner image. Replace this file with the actual QR image provided by the business.</desc>
  <rect width="420" height="420" fill="#f7f2eb"/>
  <rect x="22" y="22" width="376" height="376" rx="24" fill="#ffffff" stroke="#18120d" stroke-width="8"/>
  <g fill="#18120d">
    <rect x="50" y="50" width="86" height="86"/>
    <rect x="64" y="64" width="58" height="58" fill="#ffffff"/>
    <rect x="76" y="76" width="34" height="34"/>
    <rect x="284" y="50" width="86" height="86"/>
    <rect x="298" y="64" width="58" height="58" fill="#ffffff"/>
    <rect x="310" y="76" width="34" height="34"/>
    <rect x="50" y="284" width="86" height="86"/>
    <rect x="64" y="298" width="58" height="58" fill="#ffffff"/>
    <rect x="76" y="310" width="34" height="34"/>
    <rect x="172" y="54" width="18" height="18"/>
    <rect x="198" y="54" width="18" height="18"/>
    <rect x="224" y="54" width="18" height="18"/>
    <rect x="172" y="80" width="18" height="18"/>
    <rect x="224" y="80" width="18" height="18"/>
    <rect x="146" y="106" width="18" height="18"/>
    <rect x="172" y="106" width="18" height="18"/>
    <rect x="198" y="106" width="18" height="18"/>
    <rect x="250" y="106" width="18" height="18"/>
    <rect x="172" y="132" width="18" height="18"/>
    <rect x="224" y="132" width="18" height="18"/>
    <rect x="250" y="132" width="18" height="18"/>
    <rect x="146" y="158" width="18" height="18"/>
    <rect x="198" y="158" width="18" height="18"/>
    <rect x="224" y="158" width="18" height="18"/>
    <rect x="250" y="158" width="18" height="18"/>
    <rect x="276" y="158" width="18" height="18"/>
    <rect x="146" y="184" width="18" height="18"/>
    <rect x="172" y="184" width="18" height="18"/>
    <rect x="224" y="184" width="18" height="18"/>
    <rect x="250" y="184" width="18" height="18"/>
    <rect x="276" y="184" width="18" height="18"/>
    <rect x="302" y="184" width="18" height="18"/>
    <rect x="94" y="158" width="18" height="18"/>
    <rect x="68" y="184" width="18" height="18"/>
    <rect x="94" y="184" width="18" height="18"/>
    <rect x="120" y="184" width="18" height="18"/>
    <rect x="68" y="210" width="18" height="18"/>
    <rect x="120" y="210" width="18" height="18"/>
    <rect x="146" y="210" width="18" height="18"/>
    <rect x="198" y="210" width="18" height="18"/>
    <rect x="224" y="210" width="18" height="18"/>
    <rect x="276" y="210" width="18" height="18"/>
    <rect x="328" y="210" width="18" height="18"/>
    <rect x="94" y="236" width="18" height="18"/>
    <rect x="120" y="236" width="18" height="18"/>
    <rect x="172" y="236" width="18" height="18"/>
    <rect x="198" y="236" width="18" height="18"/>
    <rect x="250" y="236" width="18" height="18"/>
    <rect x="302" y="236" width="18" height="18"/>
    <rect x="328" y="236" width="18" height="18"/>
    <rect x="146" y="262" width="18" height="18"/>
    <rect x="172" y="262" width="18" height="18"/>
    <rect x="224" y="262" width="18" height="18"/>
    <rect x="250" y="262" width="18" height="18"/>
    <rect x="276" y="262" width="18" height="18"/>
    <rect x="302" y="262" width="18" height="18"/>
    <rect x="146" y="288" width="18" height="18"/>
    <rect x="198" y="288" width="18" height="18"/>
    <rect x="224" y="288" width="18" height="18"/>
    <rect x="250" y="288" width="18" height="18"/>
    <rect x="302" y="288" width="18" height="18"/>
    <rect x="328" y="288" width="18" height="18"/>
    <rect x="172" y="314" width="18" height="18"/>
    <rect x="198" y="314" width="18" height="18"/>
    <rect x="224" y="314" width="18" height="18"/>
    <rect x="276" y="314" width="18" height="18"/>
    <rect x="302" y="314" width="18" height="18"/>
    <rect x="172" y="340" width="18" height="18"/>
    <rect x="224" y="340" width="18" height="18"/>
    <rect x="250" y="340" width="18" height="18"/>
    <rect x="276" y="340" width="18" height="18"/>
    <rect x="328" y="340" width="18" height="18"/>
  </g>
  <circle cx="210" cy="210" r="54" fill="#18120d"/>
  <text x="210" y="227" text-anchor="middle" font-family="Arial, sans-serif" font-size="54" font-weight="700" fill="#ffffff">₹</text>
</svg>
